<svg width="20" height="20" viewBox="0 0 20 20" fill="none" xmlns="http://www.w3.org/2000/svg">
<path fill-rule="evenodd" clip-rule="evenodd" d="M10.0016 1.66669C7.73884 1.66669 7.45558 1.67645 6.56673 1.71552C5.68114 1.75459 5.0723 1.89785 4.54485 2.10297C3.99462 2.31786 3.52903 2.60111 3.0667 3.0667C2.60111 3.52903 2.31786 3.99462 2.10297 4.5416C1.89785 5.0723 1.75459 5.67789 1.71552 6.56348C1.67645 7.45558 1.66669 7.73884 1.66669 10.0016C1.66669 12.2645 1.67645 12.5477 1.71552 13.4366C1.75459 14.3222 1.89785 14.931 2.10297 15.4584C2.31786 16.0087 2.60111 16.4743 3.0667 16.9366C3.52903 17.3989 3.99462 17.6854 4.5416 17.8971C5.0723 18.1022 5.67789 18.2454 6.56348 18.2845C7.45232 18.3236 7.73558 18.3334 9.99839 18.3334C12.2612 18.3334 12.5445 18.3236 13.4333 18.2845C14.3189 18.2454 14.9277 18.1022 15.4552 17.8971C16.0022 17.6854 16.4678 17.3989 16.9301 16.9366C17.3924 16.4743 17.6789 16.0087 17.8906 15.4617C18.0957 14.931 18.2389 14.3254 18.278 13.4398C18.3171 12.551 18.3268 12.2677 18.3268 10.0049C18.3268 7.74209 18.3171 7.45883 18.278 6.56999C18.2389 5.6844 18.0957 5.07556 17.8906 4.54811C17.6854 3.99462 17.4022 3.52903 16.9366 3.0667C16.4743 2.60437 16.0087 2.31786 15.4617 2.10623C14.931 1.90111 14.3254 1.75785 13.4398 1.71878C12.5477 1.67645 12.2645 1.66669 10.0016 1.66669ZM10.0016 5.72022C7.63789 5.72022 5.7202 7.63791 5.7202 10.0017C5.7202 12.3654 7.63789 14.2831 10.0016 14.2831C12.3654 14.2831 14.2831 12.3654 14.2831 10.0017C14.2831 7.63791 12.3654 5.72022 10.0016 5.72022ZM10.0016 12.7789C8.46813 12.7789 7.2244 11.5352 7.2244 10.0017C7.2244 8.46815 8.46813 7.22442 10.0016 7.22442C11.5351 7.22442 12.7789 8.46815 12.7789 10.0017C12.7789 11.5352 11.5351 12.7789 10.0016 12.7789ZM14.4524 6.55047C15.0026 6.55047 15.452 6.10442 15.452 5.55092C15.452 5.00068 15.0026 4.55138 14.4524 4.55138C13.9022 4.55138 13.4529 4.99743 13.4529 5.55092C13.4529 6.10116 13.8989 6.55047 14.4524 6.55047Z" fill="white"/>
</svg>
