<svg width="20" height="20" viewBox="0 0 20 20" fill="none" xmlns="http://www.w3.org/2000/svg">
<path d="M5.61461 7.26392H2.26971V17.9306H5.61461V7.26392Z" fill="white"/>
<path d="M14.6551 7.025C14.5318 7.00959 14.4008 7.00188 14.2698 6.99417C12.3969 6.9171 11.3411 8.02693 10.9711 8.50477C10.8709 8.63579 10.8247 8.71286 10.8247 8.71286V7.28705H7.62622V17.9537H10.8247H10.9711C10.9711 16.867 10.9711 15.788 10.9711 14.7013C10.9711 14.1156 10.9711 13.5298 10.9711 12.9441C10.9711 12.2196 10.9172 11.4489 11.2794 10.7861C11.5877 10.2312 12.1426 9.95371 12.7669 9.95371C14.6166 9.95371 14.6551 11.6262 14.6551 11.7803C14.6551 11.788 14.6551 11.7957 14.6551 11.7957V18H18V11.0404C18 8.65891 16.79 7.25622 14.6551 7.025Z" fill="white"/>
<path d="M3.9422 5.88439C5.01484 5.88439 5.88439 5.01484 5.88439 3.9422C5.88439 2.86955 5.01484 2 3.9422 2C2.86955 2 2 2.86955 2 3.9422C2 5.01484 2.86955 5.88439 3.9422 5.88439Z" fill="white"/>
</svg>
