<svg width="20" height="20" viewBox="0 0 20 20" fill="none" xmlns="http://www.w3.org/2000/svg">
<path fill-rule="evenodd" clip-rule="evenodd" d="M3.18946 9.07326C7.50829 7.19162 10.3882 5.95112 11.8291 5.35178C15.9434 3.64053 16.7983 3.34326 17.3555 3.33345C17.4781 3.33129 17.7521 3.36166 17.9296 3.50569C18.0795 3.62731 18.1207 3.79159 18.1404 3.90689C18.1602 4.0222 18.1847 4.28486 18.1652 4.4901C17.9422 6.83268 16.9775 12.5175 16.4867 15.1412C16.2791 16.2514 15.8702 16.6236 15.4743 16.6601C14.614 16.7392 13.9607 16.0915 13.1274 15.5453C11.8235 14.6906 11.0869 14.1585 9.82123 13.3245C8.35854 12.3606 9.30674 11.8308 10.1403 10.965C10.3585 10.7384 14.1491 7.29057 14.2225 6.9778C14.2316 6.93868 14.2401 6.79287 14.1535 6.71587C14.0669 6.63888 13.939 6.66521 13.8468 6.68615C13.716 6.71583 11.633 8.09261 7.5978 10.8165C7.00655 11.2225 6.47101 11.4203 5.99119 11.4099C5.46222 11.3985 4.44471 11.1109 3.68829 10.865C2.7605 10.5634 2.02312 10.4039 2.08733 9.89175C2.12078 9.62498 2.48815 9.35214 3.18946 9.07326Z" fill="white"/>
</svg>
