<svg width="20" height="20" viewBox="0 0 20 20" fill="none" xmlns="http://www.w3.org/2000/svg">
<g clip-path="url(#clip0_9_17)">
<path d="M7.52238 17.6249C7.52238 18.2557 7.53616 18.8892 7.51687 19.5227C7.50585 19.9141 7.17375 20.0873 6.74796 19.9437C5.59046 19.5495 4.53354 18.9568 3.61305 18.1416C0.877764 15.7187 -0.344504 12.6552 0.0840478 8.9807C0.615948 4.40236 4.01818 0.86019 8.4787 0.125289C13.8363 -0.756029 19.0326 3.08882 19.8691 8.55412C20.5719 13.1437 18.3891 17.4673 14.3351 19.4974C13.9865 19.672 13.6213 19.8198 13.2534 19.9479C12.7945 20.1084 12.5024 19.8789 12.5038 19.389C12.5065 18.5091 12.5024 17.6292 12.5107 16.7478C12.5189 16.0284 12.3839 15.3611 11.8768 14.7966C12.3164 14.705 12.7408 14.6389 13.1556 14.5291C14.3007 14.2264 15.2901 13.652 15.8096 12.5271C16.5302 10.963 16.7039 9.34675 15.9115 7.73475C15.7737 7.45459 15.4816 7.22933 15.421 6.94213C15.3631 6.6676 15.534 6.34801 15.5657 6.04391C15.6249 5.47514 15.5216 4.92185 15.3204 4.39391C15.2914 4.31788 15.1523 4.24467 15.0627 4.24186C14.5515 4.22496 14.0871 4.41784 13.6406 4.64169C13.3154 4.805 13.0109 5.01477 12.6898 5.18512C12.5906 5.23721 12.4528 5.27382 12.3494 5.24848C10.802 4.8585 9.25726 4.86132 7.70979 5.24566C7.59955 5.27241 7.44797 5.23581 7.34738 5.17386C6.73831 4.79796 6.12373 4.43755 5.41683 4.28409C4.80087 4.15035 4.76505 4.17287 4.60244 4.805C4.43295 5.46951 4.42744 6.12839 4.61209 6.79289C4.63689 6.8844 4.61485 7.03223 4.55559 7.09981C3.10045 8.74418 3.60065 11.9245 4.62863 13.1451C5.29695 13.9378 6.1568 14.3629 7.12966 14.5896C7.46313 14.667 7.80211 14.7191 8.16728 14.7895C7.84345 15.1542 7.66018 15.5667 7.57612 16.0298C7.56234 16.1045 7.46313 16.1875 7.38596 16.2199C6.27944 16.6789 5.30108 16.3579 4.66583 15.3329C4.41917 14.9359 4.12704 14.5713 3.6916 14.3995C3.44494 14.3024 3.15832 14.2785 2.88961 14.2813C2.63882 14.2841 2.58922 14.4474 2.75457 14.6417C2.81245 14.7093 2.87859 14.7754 2.95438 14.8191C3.529 15.1485 3.86936 15.6905 4.09397 16.2818C4.46602 17.2589 5.1936 17.639 6.14027 17.6841C6.58122 17.7066 7.02493 17.6489 7.52238 17.6249Z" fill="white"/>
</g>
<defs>
<clipPath id="clip0_9_17">
<rect width="20" height="20" fill="white"/>
</clipPath>
</defs>
</svg>
